HIERARCHY
ROOT hip
{
  OFFSET 0 0 0
  CHANNELS 6 Xposition Yposition Zposition Zrotation Yrotation Xrotation
  JOINT abdomen
  {
    OFFSET 0 20.6881 -0.73152
    CHANNELS 3 Zrotation Xrotation Yrotation
    JOINT chest
    {
      OFFSET 0 11.7043 -0.48768
      CHANNELS 3 Zrotation Xrotation Yrotation
      JOINT neck
      {
        OFFSET 0 22.1894 -2.19456
        CHANNELS 3 Zrotation Xrotation Yrotation
        JOINT head
        {
          OFFSET -0.24384 7.07133 1.2192
          CHANNELS 3 Zrotation Xrotation Yrotation
          JOINT leftEye
          {
            OFFSET 4.14528 8.04674 8.04672
            CHANNELS 3 Zrotation Xrotation Yrotation
            End Site
            {
              OFFSET 1 0 0
            }
          }
          JOINT rightEye
          {
            OFFSET -3.6576 8.04674 8.04672
            CHANNELS 3 Zrotation Xrotation Yrotation
            End Site
            {
              OFFSET 1 0 0
            }
          }
        }
      }
      JOINT rCollar
      {
        OFFSET -2.68224 19.2634 -4.8768
        CHANNELS 3 Zrotation Xrotation Yrotation
        JOINT rShldr
        {
          OFFSET -8.77824 -1.95073 1.46304
          CHANNELS 3 Zrotation Xrotation Yrotation
          JOINT rForeArm
          {
            OFFSET -28.1742 -1.7115 0.48768
            CHANNELS 3 Zrotation Xrotation Yrotation
            JOINT rHand
            {
              OFFSET -22.5879 0.773209 7.07136
              CHANNELS 3 Zrotation Xrotation Yrotation
              JOINT rThumb1
              {
                OFFSET -1.2192 -0.487915 3.41376
                CHANNELS 3 Zrotation Xrotation Yrotation
                JOINT rThumb2
                {
                  OFFSET -3.37035 -0.52449 3.41376
                  CHANNELS 3 Zrotation Xrotation Yrotation
                  End Site
                  {
                    OFFSET -1.78271 -1.18214 1.43049
                  }
                }
              }
              JOINT rIndex1
              {
                OFFSET -7.75947 0.938293 5.60832
                CHANNELS 3 Zrotation Xrotation Yrotation
                JOINT rIndex2
                {
                  OFFSET -2.54057 -0.884171 1.56538
                  CHANNELS 3 Zrotation Xrotation Yrotation
                  End Site
                  {
                    OFFSET -1.62519 -0.234802 1.16502
                  }
                }
              }
              JOINT rMid1
              {
                OFFSET -8.24714 1.18213 3.41376
                CHANNELS 3 Zrotation Xrotation Yrotation
                JOINT rMid2
                {
                  OFFSET -3.10165 -0.590103 1.0647
                  CHANNELS 3 Zrotation Xrotation Yrotation
                  End Site
                  {
                    OFFSET -2.48547 -0.328903 0.83742
                  }
                }
              }
              JOINT rRing1
              {
                OFFSET -8.82822 0.546677 1.51678
                CHANNELS 3 Zrotation Xrotation Yrotation
                JOINT rRing2
                {
                  OFFSET -2.60934 -0.819778 -0.0198488
                  CHANNELS 3 Zrotation Xrotation Yrotation
                  End Site
                  {
                    OFFSET -2.33842 -0.294052 0.168128
                  }
                }
              }
              JOINT rPinky1
              {
                OFFSET -8.27202 -0.0477905 -0.4584
                CHANNELS 3 Zrotation Xrotation Yrotation
                JOINT rPinky2
                {
                  OFFSET -1.82734 -0.647385 -0.700984
                  CHANNELS 3 Zrotation Xrotation Yrotation
                  End Site
                  {
                    OFFSET -1.69225 -0.51767 -0.607171
                  }
                }
              }
            }
          }
        }
      }
      JOINT lCollar
      {
        OFFSET 2.68224 19.2634 -4.8768
        CHANNELS 3 Zrotation Xrotation Yrotation
        JOINT lShldr
        {
          OFFSET 8.77824 -1.95073 1.46304
          CHANNELS 3 Zrotation Xrotation Yrotation
          JOINT lForeArm
          {
            OFFSET 28.1742 -1.7115 0.48768
            CHANNELS 3 Zrotation Xrotation Yrotation
            JOINT lHand
            {
              OFFSET 22.5879 0.773209 7.07136
              CHANNELS 3 Zrotation Xrotation Yrotation
              JOINT lThumb1
              {
                OFFSET 1.2192 -0.487915 3.41376
                CHANNELS 3 Zrotation Xrotation Yrotation
                JOINT lThumb2
                {
                  OFFSET 3.37035 -0.52449 3.41376
                  CHANNELS 3 Zrotation Xrotation Yrotation
                  End Site
                  {
                    OFFSET 1.78271 -1.18214 1.43049
                  }
                }
              }
              JOINT lIndex1
              {
                OFFSET 7.75947 0.938293 5.60832
                CHANNELS 3 Zrotation Xrotation Yrotation
                JOINT lIndex2
                {
                  OFFSET 2.54057 -0.884171 1.56538
                  CHANNELS 3 Zrotation Xrotation Yrotation
                  End Site
                  {
                    OFFSET 1.62519 -0.234802 1.16502
                  }
                }
              }
              JOINT lMid1
              {
                OFFSET 8.24714 1.18213 3.41376
                CHANNELS 3 Zrotation Xrotation Yrotation
                JOINT lMid2
                {
                  OFFSET 3.10165 -0.590103 1.0647
                  CHANNELS 3 Zrotation Xrotation Yrotation
                  End Site
                  {
                    OFFSET 2.48547 -0.328903 0.83742
                  }
                }
              }
              JOINT lRing1
              {
                OFFSET 8.82822 0.546677 1.51678
                CHANNELS 3 Zrotation Xrotation Yrotation
                JOINT lRing2
                {
                  OFFSET 2.60934 -0.819778 -0.0198488
                  CHANNELS 3 Zrotation Xrotation Yrotation
                  End Site
                  {
                    OFFSET 2.33842 -0.294052 0.168128
                  }
                }
              }
              JOINT lPinky1
              {
                OFFSET 8.27202 -0.0477905 -0.4584
                CHANNELS 3 Zrotation Xrotation Yrotation
                JOINT lPinky2
                {
                  OFFSET 1.82734 -0.647385 -0.700984
                  CHANNELS 3 Zrotation Xrotation Yrotation
                  End Site
                  {
                    OFFSET 1.69225 -0.51767 -0.607171
                  }
                }
              }
            }
          }
        }
      }
    }
  }
  JOINT rButtock
  {
    OFFSET -8.77824 4.35084 1.2192
    CHANNELS 3 Zrotation Xrotation Yrotation
    JOINT rThigh
    {
      OFFSET 0 -1.70687 -2.19456
      CHANNELS 3 Zrotation Xrotation Yrotation
      JOINT rShin
      {
        OFFSET 0 -36.8199 0.73152
        CHANNELS 3 Zrotation Xrotation Yrotation
        JOINT rFoot
        {
          OFFSET 0.73152 -45.1104 -5.12064
          CHANNELS 3 Zrotation Xrotation Yrotation
          End Site
          {
            OFFSET -1.1221 -3.69964 12.103
          }
        }
      }
    }
  }
  JOINT lButtock
  {
    OFFSET 8.77824 4.35084 1.2192
    CHANNELS 3 Zrotation Xrotation Yrotation
    JOINT lThigh
    {
      OFFSET 0 -1.70687 -2.19456
      CHANNELS 3 Zrotation Xrotation Yrotation
      JOINT lShin
      {
        OFFSET 0 -36.8199 0.73152
        CHANNELS 3 Zrotation Xrotation Yrotation
        JOINT lFoot
        {
          OFFSET -0.73152 -45.1104 -5.12064
          CHANNELS 3 Zrotation Xrotation Yrotation
          End Site
          {
            OFFSET 1.1221 -3.69964 12.103
          }
        }
      }
    }
  }
}
MOTION
Frames:	5
Frame Time:	0.00833333
0.0 0.0 0.0 0.0 0.0 0.0 0.0 0.0 0.0 0.0 0.0 0.0 0.0 0.0 0.0 0.0 0.0 0.0 0.0 0.0 0.0 0.0 0.0 0.0 0.0 0.0 0.0 0.0 0.0 0.0 0.0 0.0 0.0 0.0 0.0 0.0 0.0 0.0 0.0 0.0 0.0 0.0 0.0 0.0 0.0 0.0 0.0 0.0 0.0 0.0 0.0 0.0 0.0 0.0 0.0 0.0 0.0 0.0 0.0 0.0 0.0 0.0 0.0 0.0 0.0 0.0 0.0 0.0 0.0 0.0 0.0 0.0 0.0 0.0 0.0 0.0 0.0 0.0 0.0 0.0 0.0 0.0 0.0 0.0 0.0 0.0 0.0 0.0 0.0 0.0 0.0 0.0 0.0 0.0 0.0 0.0 0.0 0.0 0.0 0.0 0.0 0.0 0.0 0.0 0.0 0.0 0.0 0.0 0.0 0.0 0.0 0.0 0.0 0.0 0.0 0.0 0.0 0.0 0.0 0.0 0.0 0.0 0.0 0.0 0.0 0.0 0.0 0.0 0.0 0.0 0.0 0.0
-90.8868 84.2255 17.3277 -103.171481 86.470237 -95.486304 1.127558 -1.500272 12.514752 0.352574 1.159017 -11.896059 10.483177 8.879347 81.471156 -12.345939 7.90974 -91.486753 -0.003814 0.0 -0.002918 0.002032 -0.0 -0.0015 -9.65154 34.836204 11.199164 26.113736 1.956789 8.80365 65.93263 -75.301527 95.128103 -19.587038 46.608248 6.693929 -164.698066 -2.372045 89.585528 -70.804753 -0.580513 23.901425 5.361996 -9.17191 -2.725167 -8.586957 25.851456 8.182807 -6.646778 17.108781 4.325936 -172.014299 -31.355624 144.094933 0.001724 -0.018441 -0.006322 -155.839411 -54.269318 178.953587 -11.664099 -23.130374 -11.071032 -25.174857 -42.268721 -26.313137 155.460183 -3.227749 -161.777647 86.947325 71.879342 -86.34392 4.915032 58.674682 -41.693809 10.235611 25.342947 -0.907205 159.653533 2.601069 -88.800314 126.355436 6.376661 -60.384045 172.895558 -51.894161 -120.181927 169.09083 -35.607808 -116.61329 151.477261 17.842037 -137.53937 5.941433 23.222196 -5.417637 -0.004626 1.771167 -0.55792 53.055173 -86.668827 74.412427 -17.006892 59.584333 -12.704857 161.21508 55.50136 149.09625 -179.997892 75.748822 -0.001079 178.712933 65.589459 1.16148 -2.832894 17.777672 -141.432977 -123.479581 60.817293 -155.751807 -179.992727 75.751638 -0.004976 -176.882369 71.677422 -0.0 4.803017 5.225372 47.587395 161.067368 -52.441959 32.578193
-91.43050000000001 84.19579999999999 16.7691 -97.222696 87.452577 -89.642109 1.745128 -3.274995 28.071871 1.296375 2.301941 -26.892369 -9.966672 12.444655 -65.666407 19.526793 2.545681 44.453964 -0.002037 -0.0 7.6e-05 -0.002037 -0.0 7.6e-05 -84.214422 68.24724 87.351984 178.217934 -27.548588 125.731252 -175.475705 -32.391255 74.658251 170.087403 -23.384144 142.665316 -177.746177 -15.324765 89.569946 -145.757876 9.515294 76.687916 2.326985 -3.867543 -1.259077 -165.984739 -20.588566 109.699338 -125.644182 49.840906 115.275739 16.165634 -37.010048 -0.539993 -76.293312 72.937697 94.351798 5.03628 29.725395 -0.538252 -155.359087 49.792794 -149.601035 -147.914276 10.847714 -141.728317 0.009487 0.056143 -0.012397 -42.336846 2.401719 -5.64397 -4.914974 -13.127042 -72.524351 9.313332 16.92722 0.309854 121.365031 30.329585 -71.957547 158.337475 -22.061746 -76.102842 140.764158 1.381011 -116.229309 175.119422 -36.990232 -116.608732 -89.03629 -81.391856 -59.761911 42.445112 58.391118 -36.31209 -0.00431 0.876275 -0.276498 -3.083099 45.208929 -8.976084 -54.201484 87.260028 14.48245 24.398299 -39.479682 24.488168 179.987088 75.750368 0.008835 176.806595 59.6101 3.70074 6.788458 16.381411 107.068238 25.437195 55.929854 -116.615527 0.0 -0.000726 0.001208 2.370339 -5.860463 0.289036 -7.54053 9.703842 -70.073686 116.566754 59.045122 -36.690698
-91.93430000000001 84.1347 16.3141 -84.440459 88.099515 -77.099695 1.496945 -6.968071 96.121936 5.96753 -1.379477 -94.397277 9.035316 12.362437 75.175215 -20.529805 5.333333 -106.505341 -0.00071 0.0 -0.002517 -0.000655 -0.0 0.005323 -142.973148 39.431392 147.389612 -81.507523 22.821262 61.001829 78.3629 -34.107915 -88.252844 -163.666477 43.477667 136.35253 -78.030249 38.688944 42.413082 -158.536399 -37.240395 82.3886 73.419054 -73.571846 26.562291 -7.333613 32.923693 6.286544 -86.295511 60.96117 77.857193 -147.88398 31.507164 134.343323 -145.099424 -1.522283 -178.650358 -156.13032 63.716885 172.347185 -163.030949 73.432677 -150.723477 1.176847 -0.647588 -1.610216 155.716589 -4.92538 -162.135516 71.595946 -86.307503 33.556497 -30.380408 85.207399 159.994743 179.260121 -3.287391 -143.200067 78.030427 38.688553 -42.413048 -19.447853 -23.940062 -20.393636 153.478497 -21.111595 -121.749881 -25.462012 -28.326643 10.150397 89.836126 60.702144 -81.262433 -80.823648 -77.8019 -52.172313 -0.006059 1.77103 -0.55878 -4.916579 38.530115 -6.840335 111.059679 -41.161796 109.11872 147.122028 13.387507 142.696318 -179.992285 75.749189 -0.005279 176.231192 54.288904 -0.0 -6.389255 23.230988 -134.133598 87.406371 -37.09191 -173.303541 -0.0 -0.001321 -0.000808 3.535955 -7.413183 0.526542 -7.874122 12.599713 -65.047663 53.810349 51.63392 33.078215
-92.3685 84.09450000000001 15.8936 -68.970522 88.54664 -61.972256 5.001677 -9.76999 -163.388102 0.098009 -9.271197 165.694444 9.367496 22.510184 125.493633 -17.655457 27.40656 -161.824797 0.004449 0.0 0.00028 -0.001153 -0.0 0.005065 -33.844276 -85.665213 -55.262152 -50.632084 -15.235296 -75.12094 3.810341 -9.316943 -143.453776 174.70352 -14.74293 143.507052 1.841326 -1.827586 -0.254364 15.004028 -24.51512 -12.750048 -166.820896 -43.974194 122.061012 96.668471 -70.123315 41.055315 68.985367 -80.153495 40.579102 -170.566476 -26.234142 144.089822 -0.012751 -1.323267 -0.415174 -52.65853 -86.666686 -74.261706 -146.206375 15.405458 -142.731528 -153.859559 31.072915 -145.271381 13.016341 41.250047 -14.799082 -90.53648 -18.467121 -51.53525 23.815088 27.187333 -128.64878 -0.139088 -23.146409 3.014901 6.581276 6.344814 -1.365503 -25.906915 -35.403347 11.605503 77.66793 43.030219 -64.538203 103.617956 48.615914 -77.857073 89.836735 60.702806 -81.262312 2.004185 14.74738 -2.854116 -0.003894 1.771496 -0.555789 140.50258 60.461626 -154.51345 -7.794029 24.328415 -6.894645 -1.071092 -2.577732 0.911234 -0.000519 0.000153 0.000667 -1.818251 -26.382996 -96.787117 -22.807861 1.251061 -156.808235 -111.944635 -34.765705 162.364809 -0.00394 0.00121 -0.00197 4.121031 -8.335131 -0.0 -8.916452 21.443948 -126.808631 103.467108 -24.478375 171.257621
